HIERARCHY
ROOT Hips
{
	OFFSET 0.000000 0.000000 0.000000 
	CHANNELS 6 Xposition Yposition Zposition Zrotation Yrotation Xrotation
	JOINT LeftUpLeg
	{
		OFFSET 1.363060 -1.794630 0.839290 
		CHANNELS 3 Zrotation Yrotation Xrotation
		JOINT LeftLeg
		{
			OFFSET 2.448110 -6.726130 0.000000 
			CHANNELS 3 Zrotation Yrotation Xrotation
			JOINT LeftFoot
			{
				OFFSET 2.562200 -7.039590 0.000000 
				CHANNELS 3 Zrotation Yrotation Xrotation
				JOINT LeftToeBase
				{
					OFFSET 0.157640 -0.433110 2.322550 
					CHANNELS 3 Zrotation Yrotation Xrotation
					End Site
					{
						OFFSET 0.000000 0.000000 0.000000 
					}
				}
			}
		}
	}
	JOINT RightUpLeg
	{
		OFFSET -1.305520 -1.794630 0.839290 
		CHANNELS 3 Zrotation Yrotation Xrotation
		JOINT RightLeg
		{
			OFFSET -2.542530 -6.985550 0.000000 
			CHANNELS 3 Zrotation Yrotation Xrotation
			JOINT RightFoot
			{
				OFFSET -2.568260 -7.056230 0.000000 
				CHANNELS 3 Zrotation Yrotation Xrotation
				JOINT RightToeBase
				{
					OFFSET -0.164730 -0.452590 2.363150 
					CHANNELS 3 Zrotation Yrotation Xrotation
					End Site
					{
						OFFSET 0.000000 0.000000 0.000000 
					}
				}
			}
		}
	}
	JOINT Spine
	{
		OFFSET 0.028270 2.035590 -0.193380 
		CHANNELS 3 Zrotation Yrotation Xrotation
		JOINT Spine1
		{
			OFFSET 0.056720 2.048850 -0.042750 
			CHANNELS 3 Zrotation Yrotation Xrotation
			JOINT Neck1
			{
				OFFSET -0.054170 1.746240 0.172020 
				CHANNELS 3 Zrotation Yrotation Xrotation
				JOINT Head
				{
					OFFSET 0.104070 1.761360 -0.123970 
					CHANNELS 3 Zrotation Yrotation Xrotation
					End Site
					{
						OFFSET 0.000000 0.000000 0.000000 
					}
				}
			}
			JOINT LeftArm
			{
				OFFSET 3.362410 1.200890 -0.311210 
				CHANNELS 3 Zrotation Yrotation Xrotation
				JOINT LeftForeArm
				{
					OFFSET 4.983000 -0.000000 -0.000000 
					CHANNELS 3 Zrotation Yrotation Xrotation
					JOINT LeftHand
					{
						OFFSET 3.483560 -0.000000 -0.000000 
						CHANNELS 3 Zrotation Yrotation Xrotation
						JOINT LeftHandIndex1
						{
							OFFSET 0.715260 -0.000000 -0.000000 
							CHANNELS 3 Zrotation Yrotation Xrotation
							End Site
							{
								OFFSET 0.000000 0.000000 0.000000 
							}
						}
					}
				}
			}
			JOINT RightArm
			{
				OFFSET -3.136600 1.374050 -0.404650 
				CHANNELS 3 Zrotation Yrotation Xrotation
				JOINT RightForeArm
				{
					OFFSET -5.241900 -0.000000 -0.000000 
					CHANNELS 3 Zrotation Yrotation Xrotation
					JOINT RightHand
					{
						OFFSET -3.444170 -0.000000 -0.000000 
						CHANNELS 3 Zrotation Yrotation Xrotation
						JOINT RightHandIndex1
						{
							OFFSET -0.622530 -0.000000 -0.000000 
							CHANNELS 3 Zrotation Yrotation Xrotation
							End Site
							{
								OFFSET 0.000000 0.000000 0.000000 
							}
						}
					}
				}
			}
		}
	}
}
MOTION
Frames: 15
Frame Time: 0.041667
8.474662 18.259256 -14.710961 -178.748415 -14.250479 -166.602381 -15.529006 11.233419 -26.579750 -1.300433 4.883804 12.672931 5.693085 -10.840335 41.326032 3.305700 11.174200 32.869800 18.746575 -4.702439 -33.778211 -8.353468 -17.976426 55.714766 -0.263617 -13.210244 17.010714 -0.072000 -1.731400 4.763900 -1.318965 7.896565 -3.114160 -9.207296 4.326753 1.910545 -6.475223 28.078472 0.473628 -3.688300 14.061600 -0.397500 -73.190815 -5.956394 60.894168 56.577890 -51.955829 -30.588676 0.782341 -0.201742 -13.730015 -7.125000 0.000000 0.000000 73.330152 -8.270875 37.044348 -27.208311 32.196856 -9.361730 0.801672 1.821863 -3.589703 7.125000 0.000000 0.000000 
8.469335 18.273527 -14.629857 -179.207719 -14.898377 -166.839674 -15.804840 11.422377 -25.776545 -1.284575 4.992561 12.934361 5.757998 -11.471482 41.721180 3.467600 11.416000 33.696100 18.194181 -5.397386 -33.829442 -8.465305 -18.031370 56.067112 -0.236145 -13.184109 16.806099 -0.089200 -1.926000 5.301100 -1.373965 7.665306 -3.023859 -9.259919 4.203853 2.121776 -6.456369 28.106879 0.414740 -3.718500 14.074000 -0.447400 -73.589852 -6.387393 60.790340 55.486464 -51.599666 -29.671581 0.779985 -0.185402 -13.596382 -7.125000 0.000000 0.000000 73.670229 -8.945478 36.796208 -27.151143 32.157224 -9.326108 0.841710 1.785914 -3.148332 7.125000 0.000000 0.000000 
8.462099 18.277748 -14.534079 -179.504661 -15.363359 -166.946757 -15.907619 11.378722 -25.024660 -1.280154 5.023828 12.982131 5.782029 -11.826184 41.862738 3.535400 11.515000 34.037100 17.764231 -5.751490 -34.055570 -8.532487 -18.059435 56.273977 -0.257138 -13.043742 16.872169 -0.075400 -1.771300 4.874100 -1.454698 7.571803 -2.968048 -9.460288 4.153911 2.300493 -6.284958 28.133309 0.406622 -3.698800 14.082900 -0.503800 -73.971456 -6.968049 60.851007 54.234883 -51.163123 -28.624576 0.776711 -0.167039 -13.525138 -7.125000 0.000000 0.000000 74.150138 -9.642520 36.267878 -27.143960 32.166224 -9.328621 0.881770 1.755702 -2.737003 7.125000 0.000000 0.000000 
8.522701 18.243477 -14.346845 -179.058681 -14.519114 -166.629419 -14.344787 8.893065 -24.009878 -1.253796 5.109362 13.141184 5.252674 -11.540443 38.438961 2.966500 10.640600 31.077100 18.127668 -2.849736 -35.045578 -8.621482 -18.173506 56.630899 -0.084745 -14.340161 16.502301 -0.056200 -1.529200 4.206300 -1.561829 8.136341 -3.201288 -9.651577 4.398038 1.467485 -6.133336 28.127888 0.365845 -3.653500 14.076900 -0.541200 -74.190844 -7.479507 61.033086 53.371968 -50.813132 -27.888995 0.773789 -0.148626 -13.632333 -7.125000 0.000000 0.000000 74.673583 -10.326193 35.629295 -27.148955 32.153686 -9.331354 0.915820 1.732049 -2.538736 7.125000 0.000000 0.000000 
8.458380 18.261065 -14.319810 -179.782288 -16.150409 -167.106563 -15.030611 8.874491 -22.566182 -1.250733 5.224075 13.375961 5.396845 -12.232017 39.490283 3.379300 11.285100 33.247700 17.229223 -5.721467 -34.659318 -8.668813 -18.142660 56.726102 -0.274030 -12.820799 16.854744 -0.032600 -1.165500 3.204400 -1.573934 7.473318 -2.912338 -9.846465 4.096007 2.520919 -6.145037 28.198622 0.417103 -3.672600 14.112900 -0.547300 -74.430770 -7.672938 61.085849 52.825689 -50.639441 -27.455358 0.773498 -0.147844 -13.731484 -7.125000 0.000000 0.000000 74.901651 -10.978771 35.346969 -27.010639 32.080725 -9.272730 0.939235 1.728089 -2.641852 7.125000 0.000000 0.000000 
8.470039 18.257346 -14.193279 179.997682 -16.296674 -167.021006 -14.436454 6.726642 -21.089006 -1.225202 5.354991 13.616280 5.008813 -12.585169 36.848406 3.011100 10.713100 31.318200 16.907188 -5.166044 -35.106152 -8.734230 -18.187831 56.944753 -0.225048 -13.165792 16.728654 -0.038100 -1.260100 3.464900 -1.608256 7.450130 -2.890245 -9.792672 4.070827 2.555513 -6.154578 28.298117 0.294186 -3.659400 14.159800 -0.614100 -74.818937 -8.136320 61.009834 51.965452 -50.309844 -26.746776 0.779763 -0.136079 -13.600571 -7.125000 0.000000 0.000000 75.118932 -11.478434 34.750305 -26.954620 32.039242 -9.255626 0.968951 1.718462 -2.446973 7.125000 0.000000 0.000000 
8.469536 18.259055 -14.074186 -179.893731 -16.635234 -167.108084 -13.738665 5.031156 -19.543963 -1.219819 5.345623 13.498316 4.773967 -12.559489 35.025551 2.787300 10.342600 30.093300 16.919315 -4.908588 -35.459487 -8.748429 -18.220140 57.010223 -0.214167 -13.353005 16.755419 -0.028200 -1.083600 2.978900 -1.643914 7.480593 -2.885336 -10.056615 4.089100 2.592298 -5.928736 28.293018 0.278833 -3.583100 14.153100 -0.698700 -75.099848 -8.586543 61.256518 50.937494 -49.892551 -25.903994 0.778161 -0.121643 -13.488971 -7.125000 0.000000 0.000000 75.708092 -12.213773 33.747933 -27.000400 32.095651 -9.300487 0.987671 1.709549 -2.427892 7.125000 0.000000 0.000000 
8.467828 18.265788 -13.958509 -179.833258 -17.077084 -167.274302 -13.186009 3.512200 -18.184801 -1.201812 5.434445 13.667329 4.605406 -12.448389 33.711112 2.670200 10.141000 29.434400 16.856045 -4.827904 -35.755013 -8.791037 -18.260294 57.163247 -0.194525 -13.408103 16.642865 -0.016100 -0.818000 2.248200 -1.704894 7.454296 -2.956743 -10.447671 4.065188 2.343734 -5.594098 28.300954 0.542361 -3.454800 14.162000 -0.672300 -75.168962 -8.630470 61.602921 50.468503 -49.687465 -25.518730 0.774535 -0.112872 -13.614009 -7.125000 0.000000 0.000000 76.348730 -13.090082 33.089915 -26.988506 32.099666 -9.312430 1.011084 1.713630 -2.970193 7.125000 0.000000 0.000000 
8.475868 18.270210 -13.836400 179.917689 -17.406888 -167.240657 -12.909373 1.713895 -16.832828 -1.196039 5.509945 13.753137 4.408531 -12.066352 32.149826 2.481600 9.804300 28.345300 16.462797 -4.589446 -36.159078 -8.838592 -18.285838 57.312409 -0.145354 -13.689281 16.481798 -0.019600 -0.903000 2.481900 -1.753688 7.341840 -3.027540 -10.530245 3.979310 2.040148 -5.497997 28.416549 0.751589 -3.390500 14.228900 -0.609600 -75.368859 -8.669800 61.740367 50.035979 -49.496193 -25.162597 0.772558 -0.102869 -13.674368 -7.125000 0.000000 0.000000 76.799038 -13.838607 32.478219 -27.005993 32.125179 -9.348683 1.042336 1.723654 -3.282780 7.125000 0.000000 0.000000 
8.480591 18.273929 -13.713788 179.670922 -17.708723 -167.135565 -12.714441 0.027018 -15.571252 -1.196872 5.562653 13.774748 4.231420 -11.477600 30.754903 2.433900 9.716800 28.064300 16.064037 -4.363648 -36.657771 -8.882635 -18.306221 57.446592 -0.095243 -13.984196 16.329314 -0.021000 -0.936300 2.573700 -1.780839 7.255688 -3.054626 -10.509591 3.916141 1.931087 -5.536562 28.491409 0.748788 -3.398800 14.270200 -0.627300 -75.658798 -8.794378 61.864346 49.555680 -49.287815 -24.771500 0.771977 -0.093847 -13.644260 -7.125000 0.000000 0.000000 77.288376 -14.513088 31.460767 -27.072704 32.197497 -9.421023 1.074832 1.730462 -3.289338 7.125000 0.000000 0.000000 
8.476471 18.280260 -13.601227 179.655098 -18.006055 -167.215268 -12.414463 -1.338696 -14.327416 -1.184315 5.642592 13.900032 4.078322 -10.997003 29.522635 2.449100 9.744800 28.154100 15.903585 -4.272460 -36.988682 -8.905605 -18.327426 57.528664 -0.074729 -13.968404 16.166360 -0.006700 -0.527100 1.448400 -1.810566 7.235248 -3.058298 -10.663984 3.897962 1.932100 -5.595179 28.492498 0.744961 -3.430000 14.273600 -0.636900 -75.779359 -8.951935 62.129404 49.208326 -49.125644 -24.486286 0.763598 -0.086716 -13.737140 -7.125000 0.000000 0.000000 77.713540 -15.106753 30.666749 -27.010125 32.154941 -9.405111 1.072981 1.749772 -3.736797 7.125000 0.000000 0.000000 
8.478280 18.286693 -13.487158 179.548691 -18.383264 -167.171780 -12.193308 -2.806704 -13.232801 -1.165628 5.761750 14.141666 3.922542 -10.681208 28.202853 2.273100 9.413100 27.096200 15.701468 -4.264614 -37.383481 -8.915414 -18.329942 57.557485 -0.053141 -13.945425 15.997787 -0.001500 -0.253500 0.696500 -1.823962 7.111102 -3.050703 -10.675777 3.824687 2.012664 -5.763259 28.565288 0.783906 -3.475300 14.315700 -0.580000 -75.871813 -9.231397 62.378231 48.775406 -48.904348 -24.121629 0.732457 -0.068517 -13.949252 -7.125000 0.000000 0.000000 78.020764 -15.515472 29.996415 -26.912077 32.078230 -9.367017 1.043221 1.790574 -4.349418 7.125000 0.000000 0.000000 
8.480189 18.285688 -13.369974 179.398442 -18.787983 -167.082235 -12.048201 -4.233238 -12.225718 -1.151861 5.883107 14.380415 3.770002 -9.972691 27.128365 2.284500 9.435100 27.166000 15.492742 -4.333996 -37.733165 -8.904968 -18.321005 57.516673 0.002849 -14.150409 15.735256 -0.009000 -0.611200 1.679500 -1.846950 6.979145 -3.062892 -10.708233 3.745034 2.026682 -5.918327 28.521975 0.619692 -3.604400 14.294100 -0.664100 -75.893997 -9.346380 62.709210 48.474649 -48.761750 -23.875637 0.726336 -0.071261 -14.174782 -7.125000 0.000000 0.000000 78.677083 -16.053677 28.748670 -26.959165 32.125371 -9.415269 1.039349 1.802649 -4.453442 7.125000 0.000000 0.000000 
8.471546 18.283376 -13.261533 179.473484 -18.936546 -167.338822 -11.854244 -5.324223 -11.015751 -1.123904 6.031850 14.684474 3.599396 -9.165522 25.957248 2.312400 9.488500 27.335800 15.444606 -4.288773 -37.653657 -8.857116 -18.318411 57.377459 0.050114 -14.367487 15.520317 -0.033800 -1.187500 3.264800 -1.878453 7.007959 -3.052124 -10.928628 3.753145 2.007767 -5.944222 28.537246 0.712754 -3.641400 14.305800 -0.622800 -75.852777 -9.362242 63.167216 48.206089 -48.600012 -23.643791 0.679620 -0.077660 -14.366490 -7.125000 0.000000 0.000000 79.367878 -16.642784 27.529602 -27.003721 32.172302 -9.459215 1.040855 1.806715 -4.606731 7.125000 0.000000 0.000000 
8.462300 18.291919 -13.159424 179.503656 -19.028507 -167.652764 -11.763112 -6.304021 -9.785507 -1.079125 6.228065 15.126611 3.427527 -8.725885 24.526080 2.059300 8.988500 25.759400 15.311638 -4.198135 -37.453887 -8.795413 -18.310018 57.197219 0.046794 -14.275587 15.447483 -0.032400 -1.161900 3.194300 -1.877537 7.588641 -2.886364 -10.995861 4.086086 2.394803 -5.498970 28.000292 0.975433 -3.294000 14.048100 -0.700500 -76.270476 -10.175791 64.712152 47.854083 -48.455462 -23.359266 0.716537 -0.063189 -14.502083 -7.125000 0.000000 0.000000 79.902210 -17.015316 25.225654 -26.914910 32.110220 -9.444954 1.019585 1.828125 -4.863297 7.125000 0.000000 0.000000 
